# xmcd
#
# Track frame offsets: 
#        150
#        21199
#        34349
#        54738
#        93963
#        105939
#        118582
#        143097
#        159624
#
# Disc length: 2403 seconds
#
# Revision: 0
# Processed by: cddbd v1.5.2PL0 Copyright (c) Steve Scherf et al.
# Submitted via: ExactAudioCopy v1.1
#
DISCID=6f096109
DTITLE=浅川マキ(vo) 坂本龍一(or) 内田勘太郎(g) 吉田建(b) 池田洋一郎(g) 白井幹夫(p) つのだひろ(ds) 粉川
DTITLE=忠範(tb) 萩原信義(g) - 流れを渡る
DYEAR=1977
DGENRE=Blues
TTITLE0=あのひとは行った
TTITLE1=知人を訪ねて
TTITLE2=私のブギウギ
TTITLE3=流れを渡る
TTITLE4=If I'm on the Late Side
TTITLE5=二人の女のうた
TTITLE6=あなたに
TTITLE7=波止場
TTITLE8=罪人小唄
EXTD=
EXTT0=
EXTT1=
EXTT2=
EXTT3=
EXTT4=
EXTT5=
EXTT6=
EXTT7=
EXTT8=
PLAYORDER=
